<svg xmlns="http://www.w3.org/2000/svg" width="1200" height="630" viewBox="0 0 1200 630">
  <rect width="1200" height="630" fill="#0d1a0d"/>
  <rect x="0" y="0" width="1200" height="630" fill="url(#grad)"/>
  <defs>
    <linearGradient id="grad" x1="0%" y1="0%" x2="100%" y2="100%">
      <stop offset="0%" style="stop-color:#1a2e1a"/>
      <stop offset="100%" style="stop-color:#0d1a0d"/>
    </linearGradient>
  </defs>
  <!-- Mountains silhouette -->
  <path d="M0,630 L0,400 L150,320 L280,360 L400,280 L520,340 L640,260 L760,320 L880,270 L1000,330 L1120,290 L1200,320 L1200,630 Z" fill="rgba(26,46,26,0.8)"/>
  <path d="M0,630 L0,460 L100,420 L220,440 L340,410 L460,430 L580,400 L700,425 L820,405 L940,425 L1060,408 L1180,420 L1200,415 L1200,630 Z" fill="rgba(10,18,10,0.9)"/>
  <!-- Brand name -->
  <text x="600" y="270" font-family="Georgia,serif" font-size="80" font-weight="300" fill="#f5f0e8" text-anchor="middle" letter-spacing="8">The</text>
  <text x="600" y="360" font-family="Georgia,serif" font-size="100" font-style="italic" font-weight="300" fill="#c5a255" text-anchor="middle" letter-spacing="4">Ledge</text>
  <text x="600" y="420" font-family="Arial,sans-serif" font-size="24" font-weight="300" fill="rgba(200,216,204,0.5)" text-anchor="middle" letter-spacing="12">BAGUIO CITY</text>
</svg>
